# xmcd CD database file
#
# Track frame offsets:
#	150
#	23694
#	43723
#	62560
#	86091
#	106013
#
# Disc length: 1664 seconds
#
# Revision: 1
# Processed by: cddbd v1.5.2PL0 Copyright (c) Steve Scherf et al.
# Submitted via: CDex 1.70beta2
#
DISCID=3f067e06
DTITLE=AKB48 - Everyday、カチューシャ [劇場盤]
DYEAR=2011
DGENRE=JPop
TTITLE0=Everyday、カチューシャ
TTITLE1=これから Wonderland
TTITLE2=アンチ (Team研究生)
TTITLE3=Everyday、カチューシャ off vocal ver.
TTITLE4=これから Wonderland off vocal ver.
TTITLE5=アンチ off vocal ver.
EXTD=YEAR: 2011
EXTT0=
EXTT1=
EXTT2=
EXTT3=
EXTT4=
EXTT5=
PLAYORDER=
